<svg xmlns="http://www.w3.org/2000/svg" viewBox="0 0 512 512">
	<rect width="512" height="512" rx="64" fill="#000"/>
	<circle cx="256" cy="256" r="60" fill="#fff"/>
	<g fill="#fff">
		<path d="M256 76a180 180 0 0 1 127 52l-42 42a120 120 0 0 0-85-34z"/>
		<path d="M383 128a180 180 0 0 1 53 128h-60a120 120 0 0 0-35-86z"/>
		<path d="M436 256a180 180 0 0 1-53 128l-42-42a120 120 0 0 0 35-86z"/>
		<path d="M383 384a180 180 0 0 1-127 52v-60a120 120 0 0 0 85-34z"/>
		<path d="M256 436a180 180 0 0 1-127-52l42-42a120 120 0 0 0 85 34z"/>
		<path d="M129 384a180 180 0 0 1-53-128h60a120 120 0 0 0 35 86z"/>
		<path d="M76 256a180 180 0 0 1 53-128l42 42a120 120 0 0 0-35 86z"/>
		<path d="M129 128A180 180 0 0 1 256 76v60a120 120 0 0 0-85 34z"/>
	</g>
</svg>
