<svg xmlns="http://www.w3.org/2000/svg" viewBox="0 0 512 512">
	<rect width="512" height="512" fill="#006699"/>
	<circle cx="256" cy="256" r="48" fill="#fff"/>
	<g fill="#fff">
		<path d="M256 112a144 144 0 0 1 102 42l-34 34a96 96 0 0 0-68-28z"/>
		<path d="M358 154a144 144 0 0 1 42 102h-48a96 96 0 0 0-28-68z"/>
		<path d="M400 256a144 144 0 0 1-42 102l-34-34a96 96 0 0 0 28-68z"/>
		<path d="M358 358a144 144 0 0 1-102 42v-48a96 96 0 0 0 68-28z"/>
		<path d="M256 400a144 144 0 0 1-102-42l34-34a96 96 0 0 0 68 28z"/>
		<path d="M154 358a144 144 0 0 1-42-102h48a96 96 0 0 0 28 68z"/>
		<path d="M112 256a144 144 0 0 1 42-102l34 34a96 96 0 0 0-28 68z"/>
		<path d="M154 154a144 144 0 0 1 102-42v48a96 96 0 0 0-68 28z"/>
	</g>
</svg>
